<?xml version="1.0" standalone="no"?>
<!DOCTYPE svg PUBLIC "-//W3C//DTD SVG 20010904//EN"
 "http://www.w3.org/TR/2001/REC-SVG-20010904/DTD/svg10.dtd">
<svg version="1.0" xmlns="http://www.w3.org/2000/svg"
 width="393.000000pt" height="393.000000pt" viewBox="0 0 393.000000 393.000000"
 preserveAspectRatio="xMidYMid meet">
<metadata>
Created by potrace 1.11, written by Peter Selinger 2001-2013
</metadata>
<g transform="translate(0.000000,393.000000) scale(0.100000,-0.100000)"
fill="#000000" stroke="none">
<path d="M1720 3914 c-511 -65 -964 -320 -1290 -725 -229 -285 -358 -590 -416
-984 -9 -60 -12 -362 -4 -435 10 -89 18 -146 27 -180 3 -14 7 -34 8 -45 13
-92 82 -289 155 -440 230 -477 660 -850 1162 -1010 95 -30 83 -27 208 -54 135
-28 213 -35 390 -36 217 0 315 12 501 60 592 153 1083 580 1320 1150 40 94 91
258 105 335 2 14 9 48 14 75 20 103 25 175 24 340 0 146 -9 298 -19 315 -2 3
-6 26 -10 50 -8 55 -47 205 -74 282 -66 191 -190 416 -320 578 -64 79 -200
220 -261 269 -25 20 -54 44 -65 54 -47 44 -235 160 -348 215 -159 78 -362 147
-492 166 -22 4 -67 11 -100 17 -95 16 -396 18 -515 3z"/>
</g>
</svg>
